<?xml version="1.0" encoding="utf-8" ?><svg xmlns="http://www.w3.org/2000/svg" xmlns:xlink="http://www.w3.org/1999/xlink" width="374" height="512" viewBox="0 0 374 512"><path fill="#FDFDFD" transform="scale(0.500669 0.5)" d="M0 0L747 0L747 1024L0 1024L0 0Z"/><path fill="#599E8C" transform="scale(0.500669 0.5)" d="M515.758 405.727C517.593 405.303 524.656 406.394 526.7 406.845C540.797 409.962 553.347 432.244 560.261 444.69C585.972 490.978 590.754 546.999 576.145 597.719C561.173 648.421 526.77 691.151 480.431 716.598C434.558 742.122 380.35 748.132 330 733.276L325.189 759.625C324.01 766.033 322.123 791.057 307.368 777.608C304.665 775.144 299.155 765.035 296.91 761.369L277.388 729.26C272.054 719.766 265.952 710.524 260.505 701.081C254.6 690.844 243.165 677.618 256.819 668.262C272.763 657.336 288.919 646.805 304.986 636.097L328.047 620.799C332.519 617.836 346.068 606.063 351.669 615.169C354.376 619.57 350.669 632.261 349.476 637.756C347.515 646.985 345.481 656.198 343.374 665.394C369.364 675.313 404.053 673.408 430.087 663.874C506.799 635.779 539.1 541.779 497.274 471.948C489.018 458.166 477.131 443.065 485.775 426.354C493.169 412.061 499.354 406.146 515.758 405.727Z"/><path fill="#599E8C" transform="scale(0.500669 0.5)" d="M280.104 379.737C294.669 380.633 304.625 380.264 315.051 391.906C319.58 396.641 321.626 402.061 321.126 408.552C320.203 420.532 316.322 426.605 305.809 432.12C302.338 433.941 295.856 439.24 292.889 441.89C266.709 464.871 250.936 497.462 249.157 532.252C247.057 571.078 259.455 603.105 285.097 631.748C272.572 640.743 259.855 649.469 246.956 657.92C240.4 662.341 233.781 666.667 227.101 670.899C162.994 596.025 164.736 478.759 232.723 407.369C243.492 396.061 256.538 384.137 272.133 380.282C274.176 379.777 277.92 379.791 280.104 379.737Z"/><path fill="#599E8C" transform="scale(0.500669 0.5)" d="M436.171 186.804C436.951 187.522 437.056 188.121 437.186 189.193C439.337 206.862 441.253 224.965 444.732 242.437C450.327 270.535 458.039 300.695 474.546 324.529C489.631 346.31 515.037 360.33 540.502 366.008C548.997 367.911 556.958 368.959 565.536 370.439C538.202 375.237 514.896 379.873 492.388 397.977C459.723 424.25 449.359 467.954 442.494 507.336C440.181 520.606 438.432 533.438 437.094 546.88L436.861 547.6C435.647 546.713 433.813 530.16 433.511 527.911C424.806 463.081 408.163 391.826 334.64 375.862C327.992 374.418 315.528 372.714 309.653 370.686L309.163 370.512C315.217 369.196 321.59 368.334 327.78 367.013C346.118 363.1 362.647 356.51 377.657 345.227C422.398 311.593 429.08 238.581 436.171 186.804Z"/></svg>