<?xml version="1.0" encoding="UTF-8"?>
<!-- Generator: visioncortex VTracer 0.6.4 -->
<svg version="1.1" xmlns="http://www.w3.org/2000/svg" width="747" height="1024">
<path d="M0 0 C246.51 0 493.02 0 747 0 C747 337.92 747 675.84 747 1024 C500.49 1024 253.98 1024 0 1024 C0 686.08 0 348.16 0 0 Z " fill="#FBFBFB" transform="translate(0,0)"/>
<path d="M0 0 C24.35781619 15.54856646 39.69713085 55.82970115 45.69140625 82.8828125 C45.90966064 83.88803955 45.90966064 83.88803955 46.13232422 84.91357422 C46.60371813 86.95857026 47.15941514 88.96517191 47.73046875 90.984375 C50.88305131 103.01966335 50.9506216 114.9649921 50.9140625 127.32421875 C50.91160522 128.18716553 50.90914795 129.0501123 50.90661621 129.93920898 C50.87779286 135.61175244 50.77342514 141.27925426 50.6015625 146.94921875 C50.56506592 148.18881348 50.52856934 149.4284082 50.4909668 150.70556641 C50.06712296 159.22731361 48.4151233 167.20634734 46.32788086 175.4453125 C45.78849071 177.57647795 45.26695176 179.71142042 44.74804688 181.84765625 C41.37008013 195.59111498 36.90401602 208.28992506 30.6015625 220.94921875 C30.28670898 221.5829541 29.97185547 222.21668945 29.64746094 222.86962891 C25.00285701 232.11867487 19.73640385 240.60896911 13.6015625 248.94921875 C13.03953125 249.71363281 12.4775 250.47804688 11.8984375 251.265625 C8.26528771 256.05397533 4.37461566 260.62628585 0.4765625 265.19921875 C-0.02657471 265.79017334 -0.52971191 266.38112793 -1.0480957 266.98999023 C-23.86319833 293.52310959 -55.26811436 312.44295077 -88.3984375 322.94921875 C-89.23455566 323.21508789 -90.07067383 323.48095703 -90.93212891 323.75488281 C-102.41265988 327.34904645 -113.416892 329.85278184 -125.3984375 330.94921875 C-127.13287109 331.21025391 -127.13287109 331.21025391 -128.90234375 331.4765625 C-135.4063087 332.29904682 -141.97781619 332.1927576 -148.5234375 332.19921875 C-149.23130402 332.20022583 -149.93917053 332.20123291 -150.66848755 332.20227051 C-169.11205611 332.18459803 -186.5760192 329.60573918 -204.3984375 324.94921875 C-204.46538818 326.01692505 -204.46538818 326.01692505 -204.53369141 327.10620117 C-205.09719184 334.95005092 -206.26569617 342.54800642 -207.7734375 350.26171875 C-207.98226562 351.38900391 -208.19109375 352.51628906 -208.40625 353.67773438 C-211.10079434 367.65157559 -211.10079434 367.65157559 -215.3984375 371.94921875 C-219.31008056 372.39204627 -221.5630078 372.50094228 -224.89453125 370.30078125 C-227.67126341 367.69299224 -229.25992591 365.25801591 -231.1484375 361.94921875 C-231.92286515 360.61494731 -232.69907143 359.28170743 -233.4765625 357.94921875 C-233.92322266 357.17964844 -234.36988281 356.41007812 -234.83007812 355.6171875 C-237.75233816 350.64607018 -240.7668623 345.73028764 -243.7673645 340.80615234 C-245.64072576 337.7305706 -247.50991318 334.65245634 -249.37890625 331.57421875 C-249.73564926 330.98672852 -250.09239227 330.39923828 -250.45994568 329.79394531 C-254.0823194 323.82637158 -257.67834329 317.84349264 -261.26025391 311.8515625 C-263.1142184 308.7528728 -264.97275342 305.65692986 -266.83178711 302.5612793 C-267.86726275 300.8348411 -268.90066704 299.10715869 -269.93188477 297.37817383 C-272.29737353 293.41686735 -274.68327456 289.47626404 -277.1640625 285.5859375 C-277.58558594 284.91498047 -278.00710938 284.24402344 -278.44140625 283.55273438 C-279.21762077 282.32058802 -280.00580296 281.09585756 -280.80859375 279.88085938 C-283.3772663 275.76809714 -283.82828976 272.74636992 -283.3984375 267.94921875 C-280.50666493 258.69554653 -269.23690512 253.37176408 -261.52734375 248.34375 C-260.60614243 247.73842941 -259.6849411 247.13310883 -258.73582458 246.50944519 C-255.81318338 244.58997045 -252.88720785 242.67565512 -249.9609375 240.76171875 C-246.12813561 238.24857 -242.29650852 235.73363204 -238.46484375 233.21875 C-237.52927139 232.60490448 -236.59369904 231.99105896 -235.629776 231.35861206 C-229.58519384 227.39083058 -223.5465969 223.41430203 -217.5234375 219.4140625 C-216.47374535 218.71975883 -216.47374535 218.71975883 -215.40284729 218.01142883 C-209.75581757 214.25143966 -204.26822203 210.28876168 -198.85269165 206.20292664 C-194.69643747 203.11441685 -191.50924296 202.45808145 -186.35595703 202.63574219 C-184.3984375 202.94921875 -184.3984375 202.94921875 -181.8359375 204.44921875 C-177.92105884 211.25770337 -181.46015382 220.3647719 -183.2109375 227.44921875 C-185.55852585 237.24670827 -187.68860794 247.02020852 -189.3984375 256.94921875 C-187.70074219 257.25666016 -187.70074219 257.25666016 -185.96875 257.5703125 C-184.48694989 257.84228847 -183.00518065 258.11443262 -181.5234375 258.38671875 C-180.40388672 258.5887793 -180.40388672 258.5887793 -179.26171875 258.79492188 C-173.625 259.8359375 -173.625 259.8359375 -171.3984375 260.94921875 C-133.83158889 266.83582853 -98.9662058 257.01635494 -68.65625 234.953125 C-56.35305801 225.42869132 -46.48050576 214.0631812 -38.2109375 200.94921875 C-37.80681641 200.30903809 -37.40269531 199.66885742 -36.98632812 199.00927734 C-31.44364626 190.02169623 -27.5460431 181.12718329 -24.7109375 170.94921875 C-24.41638672 169.9334375 -24.12183594 168.91765625 -23.81835938 167.87109375 C-22.972588 164.90614242 -22.17513741 161.93293621 -21.3984375 158.94921875 C-21.18727295 158.18448242 -20.9761084 157.41974609 -20.75854492 156.63183594 C-18.85684158 148.78084487 -19.06174061 140.75776847 -19.08276367 132.72851562 C-19.08591355 130.21830355 -19.06243626 127.70928506 -19.03710938 125.19921875 C-18.99814633 115.34661297 -19.81861522 106.50753591 -22.3984375 96.94921875 C-22.59187744 96.18287109 -22.78531738 95.41652344 -22.98461914 94.62695312 C-26.73097172 80.32493951 -33.54279352 67.78531033 -41.23535156 55.26611328 C-46.32022118 46.92451636 -50.52349781 38.91465308 -50.5859375 29.01171875 C-50.60011719 27.99207031 -50.61429688 26.97242188 -50.62890625 25.921875 C-50.10126558 19.11620461 -45.99954108 13.5629692 -42.3984375 7.94921875 C-42.01816406 7.35367187 -41.63789063 6.758125 -41.24609375 6.14453125 C-32.19379378 -6.29030074 -12.86021183 -5.63419704 0 0 Z " fill="#5A9D8C" transform="translate(533.3984375,409.05078125)"/>
<path d="M0 0 C6.2818381 4.27619099 12.03928489 8.70010831 13.9453125 16.32421875 C14.86464903 24.52752931 13.85678723 31.98416741 9.9453125 39.32421875 C7.29612159 42.39140566 4.48480292 44.34235296 1.0078125 46.38671875 C-26.52731777 63.54095766 -45.53559868 91.11604386 -53.53466797 122.31884766 C-54.00027471 124.11438466 -54.51091253 125.8981035 -55.02734375 127.6796875 C-63.12519568 159.80744422 -55.28140248 195.63700373 -39.12890625 223.95703125 C-35.79478019 229.36949201 -32.00348717 234.34276797 -28.0546875 239.32421875 C-26.86210005 240.90372369 -25.67389616 242.48655841 -24.4921875 244.07421875 C-23.67999939 245.15778593 -22.86755767 246.24116314 -22.0546875 247.32421875 C-31.20284851 254.1496552 -40.46679399 260.70860274 -50.00683594 266.97363281 C-52.25057405 268.45340859 -54.48535569 269.9460668 -56.71875 271.44140625 C-57.51240967 271.97258057 -58.30606934 272.50375488 -59.1237793 273.05102539 C-60.65425542 274.07570763 -62.18439021 275.10089996 -63.71411133 276.12670898 C-65.12743332 277.07090376 -66.54410531 278.01010662 -67.96435547 278.94384766 C-69.39559618 279.88898139 -70.81611757 280.85049375 -72.22705078 281.82568359 C-72.92427246 282.29312988 -73.62149414 282.76057617 -74.33984375 283.2421875 C-74.95867432 283.66653076 -75.57750488 284.09087402 -76.21508789 284.52807617 C-78.0546875 285.32421875 -78.0546875 285.32421875 -80.15917969 285.09375 C-84.99352901 283.13111874 -88.13172382 276.56239813 -91.0546875 272.32421875 C-91.63041504 271.49253174 -91.63041504 271.49253174 -92.21777344 270.64404297 C-98.39264616 261.62471434 -103.43934302 252.22077071 -108.0546875 242.32421875 C-108.42094238 241.55787109 -108.78719727 240.79152344 -109.16455078 240.00195312 C-116.15573925 225.26167526 -120.51251231 210.22481815 -124.0546875 194.32421875 C-124.34496826 193.06907471 -124.34496826 193.06907471 -124.64111328 191.78857422 C-133.28485395 153.22609793 -125.76875729 108.53768624 -109.0546875 73.32421875 C-108.76625977 72.69805664 -108.47783203 72.07189453 -108.18066406 71.42675781 C-101.82867866 57.66288745 -93.83646416 44.89488063 -84.0546875 33.32421875 C-82.49146746 31.38729965 -80.92898215 29.44978736 -79.3671875 27.51171875 C-60.77253277 4.49785906 -30.10627811 -16.94265442 0 0 Z " fill="#5A9E8D" transform="translate(307.0546875,384.67578125)"/>
<path d="M0 0 C0.33 0 0.66 0 1 0 C1.07881409 0.58421219 1.15762817 1.16842438 1.23883057 1.77033997 C2.07450013 7.95425729 2.92009683 14.13676383 3.77099609 20.31860352 C4.0856225 22.61351609 4.39787187 24.90875605 4.70751953 27.2043457 C6.60750769 41.27594086 8.816206 55.15944077 12 69 C12.15551331 69.68918518 12.31102661 70.37837036 12.47125244 71.08843994 C14.49353226 80.04885636 17.11712787 88.72059109 20 97.4375 C20.33225586 98.44449951 20.66451172 99.45149902 21.00683594 100.48901367 C31.45805769 131.47529331 48.8001063 154.42627298 78.16723633 169.24926758 C85.36780885 172.79286713 92.78352709 175.38645293 100.5 177.5625 C101.26884521 177.78010986 102.03769043 177.99771973 102.82983398 178.22192383 C109.52552643 180.0334414 116.13614374 180.92565298 123.03515625 181.54296875 C124.50275391 181.76919922 124.50275391 181.76919922 126 182 C126.33 182.66 126.66 183.32 127 184 C125.7625 184.1959375 124.525 184.391875 123.25 184.59375 C105.0051171 187.6711142 86.0216491 192.42104743 70 202 C69.03707031 202.56976563 68.07414063 203.13953125 67.08203125 203.7265625 C46.64304534 216.57694691 30.98432013 236.19732302 23 259 C22.26606688 260.87515879 21.53209876 262.75030394 20.79760742 264.62524414 C17.5800861 272.94431443 15.11105841 281.33213553 13 290 C12.81406784 290.75558701 12.62813568 291.51117401 12.43656921 292.28965759 C8.79500728 307.21549664 6.29579367 322.16425742 4.1875 337.375 C3.87388494 339.58735855 3.55943539 341.79959896 3.24414062 344.01171875 C2.48652294 349.33983027 1.7390097 354.66927733 1 360 C-1.24632821 356.63050768 -1.41994388 354.88403161 -1.82421875 350.90234375 C-1.96190674 349.64292969 -2.09959473 348.38351562 -2.24145508 347.0859375 C-2.3132901 346.41143555 -2.38512512 345.73693359 -2.45913696 345.04199219 C-7.58720876 297.78396315 -17.77173526 243.04748228 -55.75 210.75 C-74.4402956 196.5369617 -98.19508753 187.74212651 -121.48046875 185.421875 C-124 185 -124 185 -126 183 C-123.40656814 181.70328407 -121.14129415 181.63413918 -118.25 181.3125 C-89.36938223 177.23314969 -59.26750015 165.03007028 -41.13476562 141.17358398 C-15.98831611 106.51924242 -8.61357391 62.87081932 -3.35935974 21.36921692 C-3.26655228 20.63635971 -3.17374481 19.9035025 -3.078125 19.1484375 C-2.94320396 18.08087471 -2.94320396 18.08087471 -2.80555725 16.991745 C-2.07020011 11.28699036 -1.12582916 5.63988261 0 0 Z " fill="#599E8C" transform="translate(436,187)"/>
<path d="M0 0 C0.33 0.66 0.66 1.32 1 2 C-2.49359465 5.59634744 -6.11098131 8.83451967 -10 12 C-10.66 11.67 -11.32 11.34 -12 11 C-11.46890625 10.54109375 -10.9378125 10.0821875 -10.390625 9.609375 C-6.81675301 6.50506283 -3.28145941 3.41818688 0 0 Z " fill="#E3F2F0" transform="translate(528,680)"/>
<path d="M0 0 C0.66 0.33 1.32 0.66 2 1 C-0.09823258 3.25365722 -1.96754236 4.98067998 -4.625 6.5625 C-7.25743604 7.92617739 -7.25743604 7.92617739 -9 11 C-10.32 10.34 -11.64 9.68 -13 9 C-8.71 6.03 -4.42 3.06 0 0 Z " fill="#DFEFED" transform="translate(265,645)"/>
<path d="M0 0 C0.66 0.99 1.32 1.98 2 3 C-0.84936103 6.00765886 -3.23511958 8.27845212 -7 10 C-6.02223933 8.51990357 -5.0427506 7.04094856 -4.0625 5.5625 C-3.51722656 4.73878906 -2.97195313 3.91507812 -2.41015625 3.06640625 C-1 1 -1 1 0 0 Z " fill="#70A497" transform="translate(399,322)"/>
<path d="M0 0 C0.66 0.33 1.32 0.66 2 1 C1.60196439 3.88575819 1.20990931 4.82189513 -1.0625 6.75 C-1.701875 7.1625 -2.34125 7.575 -3 8 C-3.66 7.67 -4.32 7.34 -5 7 C-3.35 4.69 -1.7 2.38 0 0 Z " fill="#E0F2ED" transform="translate(548,655)"/>
<path d="M0 0 C0.98726527 2.66561622 1.0275526 3.90126985 0.25 6.6875 C-1 9 -1 9 -4 10 C-3.52449439 8.51965236 -3.04448784 7.04074979 -2.5625 5.5625 C-2.29566406 4.73878906 -2.02882813 3.91507812 -1.75390625 3.06640625 C-1 1 -1 1 0 0 Z " fill="#6DA296" transform="translate(415,291)"/>
<path d="M0 0 C0.66 0 1.32 0 2 0 C1.67 3.3 1.34 6.6 1 10 C-1.29404844 6.55892734 -1.26293056 5.03160191 -1 1 C-0.67 0.67 -0.34 0.34 0 0 Z " fill="#6D9B91" transform="translate(436,537)"/>
</svg>
