<svg id="svg" version="1.1" xmlns="http://www.w3.org/2000/svg" xmlns:xlink="http://www.w3.org/1999/xlink" width="400" height="600" viewBox="0, 0, 400,600"><g id="svgg"><path id="path0" d="M237.168 130.280 C 237.136 130.928,236.496 135.670,235.747 140.819 C 227.715 195.985,212.426 215.098,170.197 222.762 L 165.198 223.669 169.220 224.164 C 186.255 226.258,200.979 232.956,211.355 243.333 C 225.250 257.228,231.403 275.500,236.488 317.969 C 236.784 320.439,237.044 322.194,237.067 321.869 C 241.475 259.568,261.824 230.224,304.872 224.093 L 308.376 223.594 305.458 223.095 C 261.866 215.650,245.513 195.161,238.497 139.195 C 237.963 134.933,237.458 130.918,237.376 130.273 L 237.226 129.102 237.168 130.280 M143.555 228.373 C 130.377 231.146,111.161 250.425,100.584 271.484 C 82.607 307.279,87.099 354.350,111.585 386.763 L 114.127 390.128 124.153 383.236 C 129.668 379.446,136.860 374.520,140.137 372.291 C 147.064 367.576,146.660 368.365,143.881 364.991 C 127.385 344.960,123.249 317.024,133.016 291.602 C 137.329 280.376,145.527 270.037,158.326 259.680 C 164.855 254.397,166.438 252.526,167.631 248.682 C 171.506 236.199,158.500 225.229,143.555 228.373 M277.775 243.587 C 265.609 246.859,260.273 260.614,267.365 270.427 C 286.226 296.526,285.582 334.311,265.824 360.742 C 247.382 385.414,215.518 396.529,185.245 388.850 C 183.181 388.326,181.376 387.764,181.234 387.601 C 181.092 387.438,182.270 381.416,183.853 374.219 C 187.255 358.742,187.223 357.512,183.387 356.246 C 181.399 355.590,181.526 355.514,154.297 373.752 C 132.406 388.414,129.785 390.279,128.939 391.797 C 127.431 394.501,127.639 396.277,129.889 399.889 C 130.930 401.561,135.279 408.712,139.552 415.778 C 158.750 447.525,161.511 451.563,164.032 451.563 C 167.295 451.563,167.692 450.773,170.117 439.453 C 171.107 434.834,172.209 429.688,172.566 428.018 C 173.091 425.567,173.332 425.032,173.815 425.245 C 179.220 427.629,192.567 429.738,203.770 429.980 C 285.269 431.739,341.120 347.511,309.114 271.111 C 299.731 248.714,290.115 240.269,277.775 243.587 " stroke="none" fill="#52aba3" fill-rule="evenodd"></path><path id="path1" d="M0.000 300.000 L 0.000 600.000 200.000 600.000 L 400.000 600.000 400.000 300.000 L 400.000 0.000 200.000 0.000 L 0.000 0.000 0.000 300.000 M237.869 132.910 C 244.169 191.826,259.518 213.575,300.721 221.974 L 308.789 223.619 305.469 224.113 C 270.856 229.266,252.138 246.972,243.416 282.813 C 240.866 293.291,237.515 315.042,237.504 321.191 C 237.497 324.543,236.863 323.132,236.362 318.652 C 230.926 270.041,222.320 249.205,202.184 235.902 C 193.389 230.091,182.112 226.087,169.748 224.384 L 164.691 223.687 172.873 222.059 C 214.506 213.772,229.328 192.993,236.745 132.520 C 237.348 127.599,237.299 127.582,237.869 132.910 M154.455 228.506 C 164.125 230.979,169.812 238.421,168.326 246.655 C 167.446 251.532,165.533 254.072,158.515 259.679 C 137.350 276.588,128.084 294.853,128.104 319.623 C 128.118 336.983,133.215 351.559,143.898 364.787 C 145.348 366.581,146.479 368.101,146.411 368.163 C 146.001 368.544,114.576 389.955,114.258 390.070 C 114.043 390.148,112.877 388.855,111.667 387.196 C 78.442 341.654,82.903 279.125,122.031 241.920 C 134.782 229.796,144.224 225.890,154.455 228.506 M286.379 243.141 C 293.864 244.727,299.505 250.881,306.450 265.039 C 329.717 312.467,317.905 370.256,278.125 403.610 C 248.172 428.725,211.868 436.387,174.023 425.579 C 173.291 425.370,173.083 426.099,170.714 437.190 C 167.889 450.411,167.495 451.323,164.398 451.816 C 161.917 452.210,157.315 445.676,141.795 419.727 C 139.354 415.645,135.264 408.895,132.707 404.728 C 127.032 395.479,126.709 394.003,129.613 390.553 C 131.355 388.483,180.678 355.859,182.066 355.859 C 187.381 355.859,187.585 357.834,183.975 374.342 C 182.467 381.244,181.309 387.090,181.402 387.334 C 181.658 388.000,189.075 389.738,194.554 390.417 C 224.091 394.074,251.701 381.617,268.029 357.269 C 285.441 331.304,285.125 294.808,267.278 270.523 C 257.871 257.723,270.406 239.755,286.379 243.141 " stroke="none" fill="#fbfbfb" fill-rule="evenodd"></path><path id="path2" d="M211.307 204.199 L 209.961 205.664 211.426 204.318 C 212.789 203.065,213.070 202.734,212.772 202.734 C 212.707 202.734,212.047 203.394,211.307 204.199 M318.094 316.016 C 318.094 317.412,318.165 317.983,318.251 317.285 C 318.338 316.587,318.338 315.444,318.251 314.746 C 318.165 314.048,318.094 314.619,318.094 316.016 M205.176 430.365 C 206.196 430.446,207.866 430.446,208.887 430.365 C 209.907 430.285,209.072 430.219,207.031 430.219 C 204.990 430.219,204.155 430.285,205.176 430.365 " stroke="none" fill="#99cec9" fill-rule="evenodd"></path><path id="path3" d="M120.103 243.848 L 118.164 245.898 120.215 243.960 C 121.343 242.894,122.266 241.971,122.266 241.909 C 122.266 241.618,121.904 241.942,120.103 243.848 M280.984 314.063 C 280.984 315.459,281.055 316.030,281.142 315.332 C 281.229 314.634,281.229 313.491,281.142 312.793 C 281.055 312.095,280.984 312.666,280.984 314.063 M203.223 391.300 C 204.028 391.384,205.347 391.384,206.152 391.300 C 206.958 391.216,206.299 391.147,204.688 391.147 C 203.076 391.147,202.417 391.216,203.223 391.300 " stroke="none" fill="#7cbcb4" fill-rule="evenodd"></path><path id="path4" d="M281.934 242.854 C 282.417 242.947,283.208 242.947,283.691 242.854 C 284.175 242.761,283.779 242.685,282.813 242.685 C 281.846 242.685,281.450 242.761,281.934 242.854 M127.825 317.578 C 127.825 318.330,127.905 318.638,128.004 318.262 C 128.102 317.886,128.102 317.271,128.004 316.895 C 127.905 316.519,127.825 316.826,127.825 317.578 M318.059 319.531 C 318.059 320.283,318.140 320.591,318.238 320.215 C 318.336 319.839,318.336 319.224,318.238 318.848 C 318.140 318.472,318.059 318.779,318.059 319.531 M127.846 320.898 C 127.849 321.973,127.925 322.366,128.015 321.772 C 128.104 321.178,128.102 320.299,128.009 319.819 C 127.917 319.338,127.843 319.824,127.846 320.898 M201.660 430.347 C 202.036 430.446,202.651 430.446,203.027 430.347 C 203.403 430.249,203.096 430.169,202.344 430.169 C 201.592 430.169,201.284 430.249,201.660 430.347 " stroke="none" fill="#bcdcdc" fill-rule="evenodd"></path></g></svg>